<svg xmlns="http://www.w3.org/2000/svg" version="1.1" xmlns:xlink="http://www.w3.org/1999/xlink" xmlns:svgjs="http://svgjs.dev/svgjs" width="100%" height="100%" viewBox="0 0 1000 600"><rect width="1000" height="600" x="0" y="0" fill="#ffffff"/><g><circle r="166.66666666666666" cx="381.2638498942057" cy="403.48611577002043" fill="#7733ff" transform="matrix(0.5824866783682345,0,0,0.5824866783682346,0,64.97473846952649)"/><path d="M382.2281977636067 478.4861140020174Q367.7045279134924 478.4861140020174 356.2200163418729 473.3429230691802Q344.76472744600807 468.1997321363429 338.24807075269723 459.02381194934924Q331.7314140593864 449.8771144381102 331.4976326533484 437.8958173786598L331.4976326533484 437.8958173786598L351.9242830059236 437.8958173786598Q352.97629933309486 448.21142192008904 360.4280816505579 455.2540867769855Q367.9090866437757 462.29675163388197 382.2281977636067 462.29675163388197L382.2281977636067 462.29675163388197Q395.904410016833 462.29675163388197 403.79453247061747 455.4586455072688Q411.68465492440185 448.62053938065566 411.68465492440185 437.8958173786598L411.68465492440185 437.8958173786598Q411.68465492440185 429.47968676128977 407.0382494793955 424.2196051254335Q402.42106671014386 418.9595234895772 395.46606988051167 416.21259196863Q388.54029572663427 413.4948831234376 376.73433472171234 410.3388341419238L376.73433472171234 410.3388341419238Q362.23988754735285 406.5398862938054 353.5023074966805 402.740938445687Q344.76472744600807 398.9712132733233 338.5695201859996 390.8765320892556Q332.3450902502363 382.7526282294331 332.3450902502363 369.0764159762068L332.3450902502363 369.0764159762068Q332.3450902502363 357.0951189167564 338.45262948298057 347.83153070249836Q344.5601687157248 338.56794248824036 355.606340151023 333.54164225842214Q366.65251158632117 328.4861193528492 380.9424000303974 328.4861193528492L380.9424000303974 328.4861193528492Q401.5736091132559 328.4861193528492 414.7238132028966 338.80172389427844Q427.8740172925373 349.0881057599529 429.56893248631326 366.15414840073106L429.56893248631326 366.15414840073106L408.52860594288813 366.15414840073106Q407.4765896157169 357.738017783361 399.6741351891967 351.3090291173145Q391.9009034384313 344.8800404512679 379.07214878209294 344.8800404512679L379.07214878209294 344.8800404512679Q367.0616290468878 344.8800404512679 359.4929560264057 351.10447038703114Q351.9242830059236 357.2996776470397 351.9242830059236 368.4627397853569L351.9242830059236 368.4627397853569Q351.9242830059236 376.4405302664056 356.4537977479109 381.4960531719786Q360.9540898141435 386.55157607755154 367.5876372104734 389.1816168954797Q374.22118460680326 391.81165771340784 386.2024816662537 395.1722654252049L386.2024816662537 395.1722654252049Q400.72615151636796 399.1757720036066 409.5806222700594 403.0623878789893Q418.40587034799603 406.94900375437203 424.7179683110236 415.0729076141945Q431.0300662740511 423.1675887982622 431.0300662740511 437.04835978177186L431.0300662740511 437.04835978177186Q431.0300662740511 447.7730817837677 425.3608671776282 457.241228728309Q419.66244540545057 466.70937567285034 408.52860594288813 472.6123561753112Q397.3655438045709 478.4861140020174 382.2281977636067 478.4861140020174L382.2281977636067 478.4861140020174Z " fill="#ffffff" transform="matrix(0.5824866783682345,0,0,0.5824866783682346,0,64.97473846952649)"/><path d="M664.868012235414 440.84028147886727Q655.4305132354473 440.84028147886727 647.9305140301758 437.6111151543754Q640.4305148249043 434.38194882988347 636.0763486196217 428.6111161080496Q631.7221824143392 422.8402833862157 631.2638491295725 415.3402841809442L631.2638491295725 415.3402841809442L645.3680143017082 415.3402841809442Q645.9721809043549 421.4861168630417 651.138847023542 425.38194978355773Q656.3263464738548 429.27778270407373 664.7221789175337 429.27778270407373L664.7221789175337 429.27778270407373Q672.5138447585657 429.27778270407373 677.0138442817286 425.8402830683243Q681.5138438048915 422.3819501014491 681.5138438048915 417.13195065775903L681.5138438048915 417.13195065775903Q681.5138438048915 411.7361178961887 676.722177645968 409.11111817434374Q671.9305114870447 406.48611845249866 661.8680125533053 403.9444520551567L661.8680125533053 403.9444520551567Q652.7221801890993 401.52778564456924 646.9513474672654 399.06945257173027Q641.1805147454315 396.5902861677655 637.0555151825322 391.71528668433905Q632.9305156196328 386.84028720091254 632.9305156196328 378.8819547108745L632.9305156196328 378.8819547108745Q632.9305156196328 372.59028871089674 636.6805152222687 367.3402892672067Q640.4305148249043 362.0902898235166 647.326347427529 359.006956816905Q654.2221800301536 355.9444571414192 663.076345758599 355.9444571414192L663.076345758599 355.9444571414192Q676.722177645968 355.9444571414192 685.118010089647 362.8402897440438Q693.5138425333259 369.7361223466684 694.1180091359727 381.7361210751028L694.1180091359727 381.7361210751028L680.4721772486039 381.7361210751028Q680.0138439638372 375.277788426119 675.3055111294168 371.381955505603Q670.5763449638706 367.48612258508695 662.6180124738326 367.48612258508695L662.6180124738326 367.48612258508695Q655.2638465864413 367.48612258508695 650.9305137122844 370.63195558507584Q646.5763475070019 373.77778858506474 646.5763475070019 378.8819547108745L646.5763475070019 378.8819547108745Q646.5763475070019 382.94445428039654 649.2013472288468 385.56945400224157Q651.8263469506919 388.1944537240866 655.8055131957109 389.75695355851815Q659.7638461096042 391.34028672407544 666.8263453612349 393.2777865187706L666.8263453612349 393.2777865187706Q675.6805110896803 395.6944529293581 681.2221771691309 398.0069526843168Q686.7638432485816 400.34028577040124 690.7430094936005 404.9861186114444Q694.7221757386196 409.63195145248756 694.8680090564999 417.13195065775903L694.8680090564999 417.13195065775903Q694.8680090564999 423.8819499425034 691.1180094538641 429.27778270407373Q687.3680098512284 434.6944487967698 680.5555105731069 437.75694847225566Q673.7221779638594 440.84028147886727 664.868012235414 440.84028147886727L664.868012235414 440.84028147886727ZM743.1805039371238 440.84028147886727Q733.7221716060315 440.84028147886727 726.2221724007599 437.6111151543754Q718.7221731954884 434.38194882988347 714.3680069902058 428.6111161080496Q710.0138407849231 422.8402833862157 709.5763408312823 415.3402841809442L709.5763408312823 415.3402841809442L723.6805060034178 415.3402841809442Q724.2638392749391 421.4861168630417 729.4513387252518 425.38194978355773Q734.6180048444387 429.27778270407373 743.0138372881177 429.27778270407373L743.0138372881177 429.27778270407373Q750.8263364602756 429.27778270407373 755.3263359834384 425.8402830683243Q759.8263355066013 422.3819501014491 759.8263355066013 417.13195065775903L759.8263355066013 417.13195065775903Q759.8263355066013 411.7361178961887 755.0138360165522 409.11111817434374Q750.2221698576286 406.48611845249866 740.1805042550152 403.9444520551567L740.1805042550152 403.9444520551567Q731.0138385596833 401.52778564456924 725.2430058378495 399.06945257173027Q719.4721731160155 396.5902861677655 715.3471735531162 391.71528668433905Q711.2221739902169 386.84028720091254 711.2221739902169 378.8819547108745L711.2221739902169 378.8819547108745Q711.2221739902169 372.59028871089674 714.9721735928526 367.3402892672067Q718.7221731954884 362.0902898235166 725.618005798113 359.006956816905Q732.5138384007375 355.9444571414192 741.3680041291832 355.9444571414192L741.3680041291832 355.9444571414192Q755.0138360165522 355.9444571414192 763.4305017913568 362.8402897440438Q771.8263342350356 369.7361223466684 772.4305008376825 381.7361210751028L772.4305008376825 381.7361210751028L758.7638356191878 381.7361210751028Q758.326335665547 375.277788426119 753.5971695000007 371.381955505603Q748.8680033344547 367.48612258508695 740.9305041755424 367.48612258508695L740.9305041755424 367.48612258508695Q733.5763382881512 367.48612258508695 729.2221720828684 370.63195558507584Q724.8680058775858 373.77778858506474 724.8680058775858 378.8819547108745L724.8680058775858 378.8819547108745Q724.8680058775858 382.94445428039654 727.493005599431 385.56945400224157Q730.1180053212759 388.1944537240866 734.097171566295 389.75695355851815Q738.076337811314 391.34028672407544 745.1180037318188 393.2777865187706L745.1180037318188 393.2777865187706Q753.9721694602645 395.6944529293581 759.513835539715 398.0069526843168Q765.0763349502913 400.34028577040124 769.0555011953104 404.9861186114444Q773.0138341092038 409.63195145248756 773.1805007582097 417.13195065775903L773.1805007582097 417.13195065775903Q773.1805007582097 423.8819499425034 769.4305011555739 429.27778270407373Q765.6805015529383 434.6944487967698 758.8471689436908 437.75694847225566Q752.0138363344436 440.84028147886727 743.1805039371238 440.84028147886727L743.1805039371238 440.84028147886727ZM851.617992446674 357.27779033346746L865.263824334043 357.27779033346746L865.263824334043 439.48611495569327L851.617992446674 439.48611495569327L851.617992446674 427.3402829093786Q847.7221595261581 433.6319489093563 840.7429935990303 437.1527818696088Q833.7638276719026 440.694448160987 825.3679952282239 440.694448160987L825.3679952282239 440.694448160987Q815.7638295792513 440.694448160987 808.1179970560993 436.7152819159679Q800.4721645329475 432.7361156709489 796.0554983342877 424.77778318091083Q791.6179988045021 416.8402840219985 791.6179988045021 405.444451896211L791.6179988045021 405.444451896211L791.6179988045021 357.27779033346746L805.1179973739909 357.27779033346746L805.1179973739909 403.6319520882704Q805.1179973739909 415.77778413458503 811.2638300560882 422.31945010807186Q817.4304960693114 428.8402827504329 828.0763282745718 428.8402827504329L828.0763282745718 428.8402827504329Q839.0138271155927 428.8402827504329 845.3263264466964 422.0902834656886Q851.617992446674 415.3402841809442 851.617992446674 402.4444522141024L851.617992446674 402.4444522141024L851.617992446674 357.27779033346746ZM888.3679885525044 328.48612671767523L902.0138204398734 328.48612671767523L902.0138204398734 439.48611495569327L888.3679885525044 439.48611495569327L888.3679885525044 328.48612671767523ZM963.3679806052191 368.5277891413747L941.9304828768181 368.5277891413747L941.9304828768181 416.9861173398788Q941.9304828768181 422.986116704096 944.4721492741603 425.4652831080607Q947.0138156715022 427.94444951202547 953.3263150026057 427.94444951202547L953.3263150026057 427.94444951202547L963.3679806052191 427.94444951202547L963.3679806052191 439.48611495569327L951.0763152410243 439.48611495569327Q939.6804831152367 439.48611495569327 933.9721503867802 434.2361155120032Q928.2638176583234 428.98611606831315 928.2638176583234 416.9861173398788L928.2638176583234 416.9861173398788L928.2638176583234 368.5277891413747L917.617985453063 368.5277891413747L917.617985453063 357.27779033346746L928.2638176583234 357.27779033346746L928.2638176583234 336.5902925255936L941.9304828768181 336.5902925255936L941.9304828768181 357.27779033346746L963.3679806052191 357.27779033346746L963.3679806052191 368.5277891413747ZM974.7638127310067 398.09028600881976Q974.7638127310067 385.48612067773854 979.8679788568165 375.96528835326893Q984.9721449826261 366.44445602879927 993.888810704449 361.1944565851092Q1002.8263097573974 355.9444571414192 1013.7638085984183 355.9444571414192L1013.7638085984183 355.9444571414192Q1024.576307452685 355.9444571414192 1032.5138066115971 360.59028998246237Q1040.4721391016353 365.2361228235055 1044.3679720221512 372.2777887440104L1044.3679720221512 372.2777887440104L1044.3679720221512 357.27779033346746L1058.1804705585262 357.27779033346746L1058.1804705585262 439.48611495569327L1044.3679720221512 439.48611495569327L1044.3679720221512 424.19444990938973Q1040.3263057837548 431.3819491477749 1032.3054733003396 436.1111153133211Q1024.2638074857985 440.84028147886727 1013.6179752805381 440.84028147886727L1013.6179752805381 440.84028147886727Q1002.6804764395172 440.84028147886727 993.8263107110718 435.44444871729695Q984.9721449826261 430.0277826246009 979.8679788568165 420.27778365774793Q974.7638127310067 410.52778469089503 974.7638127310067 398.09028600881976L974.7638127310067 398.09028600881976ZM1044.3679720221512 398.2361193267001Q1044.3679720221512 388.9444536446137 1040.6179724195156 382.0277877108634Q1036.8679728168797 375.13195510823874 1030.492973492399 371.46528883010603Q1024.1179741679182 367.7777892208475 1016.4721416447665 367.7777892208475L1016.4721416447665 367.7777892208475Q1008.8263091216147 367.7777892208475 1002.5138097905112 371.381955505603Q996.2221437905334 374.9861217903585 992.4721441878976 381.88195439298306Q988.722144585262 388.7777869956077 988.722144585262 398.09028600881976L988.722144585262 398.09028600881976Q988.722144585262 407.5277850087864 992.4721441878976 414.50695093591406Q996.2221437905334 421.4861168630417 1002.5138097905112 425.1527831411744Q1008.8263091216147 428.8402827504329 1016.4721416447665 428.8402827504329L1016.4721416447665 428.8402827504329Q1024.1179741679182 428.8402827504329 1030.492973492399 425.1527831411744Q1036.8679728168797 421.4861168630417 1040.6179724195156 414.50695093591406Q1044.3679720221512 407.5277850087864 1044.3679720221512 398.2361193267001L1044.3679720221512 398.2361193267001ZM1121.3262972006871 355.77779049241315Q1136.32629561123 355.77779049241315 1145.6179612933163 364.861122863242Q1154.9304603065284 373.94445523407074 1154.9304603065284 391.0277867571891L1154.9304603065284 391.0277867571891L1154.9304603065284 439.48611495569327L1141.4304617370396 439.48611495569327L1141.4304617370396 392.98611988301Q1141.4304617370396 380.69445451881506 1135.2637957238167 374.1527885453283Q1129.1179630417191 367.63195590296726 1118.4721308364587 367.63195590296726L1118.4721308364587 367.63195590296726Q1107.680465313318 367.63195590296726 1101.3054659888373 374.3819551877116Q1094.9304666643566 381.1319544724559 1094.9304666643566 394.02778643929776L1094.9304666643566 394.02778643929776L1094.9304666643566 439.48611495569327L1081.2638014458619 439.48611495569327L1081.2638014458619 357.27779033346746L1094.9304666643566 357.27779033346746L1094.9304666643566 368.98612242614126Q1098.972132902753 362.6944564261635 1105.9512988298804 359.23612345928836Q1112.9304647570082 355.77779049241315 1121.3262972006871 355.77779049241315L1121.3262972006871 355.77779049241315ZM1172.1804584786528 398.09028600881976Q1172.1804584786528 385.48612067773854 1177.263791273337 375.96528835326893Q1182.3679573991467 366.44445602879927 1191.305456452095 361.1944565851092Q1200.222122173918 355.9444571414192 1211.3262876639449 355.9444571414192L1211.3262876639449 355.9444571414192Q1221.9721198692052 355.9444571414192 1229.9929523526205 360.6527899758396Q1238.013784836036 365.3819561413858 1241.7637844386718 372.2777887440104L1241.7637844386718 372.2777887440104L1241.7637844386718 357.27779033346746L1255.5762829750468 357.27779033346746L1255.5762829750468 478.486110823105L1241.7637844386718 478.486110823105L1241.7637844386718 424.34028322727Q1237.8679515181557 431.23611582989463 1229.7637857102372 436.0277819888181Q1221.6804532334447 440.84028147886727 1210.8679543791782 440.84028147886727L1210.8679543791782 440.84028147886727Q1200.0762888560378 440.84028147886727 1191.222123127592 435.44444871729695Q1182.3679573991467 430.0277826246009 1177.263791273337 420.27778365774793Q1172.1804584786528 410.52778469089503 1172.1804584786528 398.09028600881976L1172.1804584786528 398.09028600881976ZM1241.7637844386718 398.2361193267001Q1241.7637844386718 388.9444536446137 1238.013784836036 382.0277877108634Q1234.2637852334 375.13195510823874 1227.8887859089193 371.46528883010603Q1221.5137865844385 367.7777892208475 1213.8679540612868 367.7777892208475L1213.8679540612868 367.7777892208475Q1206.222121538135 367.7777892208475 1199.9304555381573 371.381955505603Q1193.6179562070538 374.9861217903585 1189.8679566044182 381.88195439298306Q1186.1179570017823 388.7777869956077 1186.1179570017823 398.09028600881976L1186.1179570017823 398.09028600881976Q1186.1179570017823 407.5277850087864 1189.8679566044182 414.50695093591406Q1193.6179562070538 421.4861168630417 1199.9304555381573 425.1527831411744Q1206.222121538135 428.8402827504329 1213.8679540612868 428.8402827504329L1213.8679540612868 428.8402827504329Q1221.5137865844385 428.8402827504329 1227.8887859089193 425.1527831411744Q1234.2637852334 421.4861168630417 1238.013784836036 414.50695093591406Q1241.7637844386718 407.5277850087864 1241.7637844386718 398.2361193267001L1241.7637844386718 398.2361193267001ZM1335.3679411866851 357.27779033346746L1349.4721063588206 357.27779033346746L1299.9721116040287 478.1944441873444L1285.8679464318932 478.1944441873444L1302.0762780477298 438.59028171728585L1268.930448226655 357.27779033346746L1284.0762799550785 357.27779033346746L1309.867943888762 423.8819499425034L1335.3679411866851 357.27779033346746ZM1413.3679329215086 368.3819558234944L1373.326270497809 428.236116147786L1413.6804328883948 428.236116147786L1413.6804328883948 439.48611495569327L1357.722105484619 439.48611495569327L1357.722105484619 428.236116147786L1397.6179345904384 368.3819558234944L1358.0137721203798 368.3819558234944L1358.0137721203798 357.27779033346746L1413.3679329215086 357.27779033346746L1413.3679329215086 368.3819558234944ZM1488.0762583384628 357.27779033346746L1502.1804235105983 357.27779033346746L1452.6804287558066 478.1944441873444L1438.5762635836709 478.1944441873444L1454.763761868382 438.59028171728585L1421.617932047307 357.27779033346746L1436.7637637757302 357.27779033346746L1462.57626104054 423.8819499425034L1488.0762583384628 357.27779033346746Z " fill="#7733ff" transform="matrix(0.5824866783682345,0,0,0.5824866783682346,0,64.97473846952649)"/></g></svg>